<svg id="图层_1" data-name="图层 1" xmlns="http://www.w3.org/2000/svg" viewBox="0 0 311 248"><defs><style>.cls-1{fill:#f29600;}</style></defs><title>logo5_画板 1</title><polygon class="cls-1" points="186.28 214.1 247.37 214.1 277.91 161.2 247.37 108.3 225.27 108.3 240.33 79.65 263.91 79.65 310.99 161.2 263.91 242.75 169.74 242.75 129 172.18 162.08 172.18 186.28 214.1"/><path class="cls-1" d="M43.28,81.82l47.08,81.55h94.17l45.83-83.72L184.53.27H90.36Zm33.08,0,30.54-52.9H168l29.29,50.73,1.25,2.17L168,134.72H106.9Z"/><polygon class="cls-1" points="25.32 155.05 75.95 155.05 101.27 198.9 75.95 242.75 25.32 242.75 0 198.9 25.32 155.05"/></svg>